External Loads File
version=1
nRows=62
nColumns=13
Range=5.000000e-03-10 seconds
endheader
time 	forceRightX 	forceRightY 	forceRightZ 	pointRightX 	pointRightY 	pointRightZ 	forceLeftX 	forceLeftY 	forceLeftZ 	pointLeftX 	pointLeftY 	pointLeftZ 		
0.005000 79.369649 174.380178 -0.000000 0.143709 0.269187 -0.124085 -58.507618 112.682549 -0.000000 0.465243 0.375489 -0.368308
0.010000 79.732041 173.799657 -0.000000 0.143729 0.269172 -0.124069 -59.509304 112.720368 -0.000000 0.465247 0.375502 -0.368320
0.015000 80.080000 173.245136 -0.000000 0.143756 0.269122 -0.124055 -60.424279 112.750062 -0.000000 0.465234 0.375502 -0.368304
0.020000 80.411079 172.709266 -0.000000 0.143754 0.269118 -0.124048 -61.134849 112.780043 -0.000000 0.465231 0.375528 -0.368290
0.025000 80.573845 172.240991 -0.000000 0.143733 0.269311 -0.123939 -61.703416 112.765544 -0.000000 0.465034 0.375889 -0.368456
0.030000 80.758448 171.742692 -0.000000 0.143723 0.269330 -0.123944 -62.045933 112.774379 -0.000000 0.465062 0.375906 -0.368428
0.035000 80.840047 171.293405 -0.000000 0.143706 0.269327 -0.123956 -62.319054 112.757277 -0.000000 0.465041 0.375939 -0.368439
0.040000 80.895879 170.892013 -0.000000 0.143691 0.269328 -0.123969 -62.528798 112.740491 -0.000000 0.465039 0.375953 -0.368454
0.045000 80.943532 170.560945 -0.000000 0.143685 0.269323 -0.123987 -62.681725 112.730905 -0.000000 0.465032 0.375966 -0.368460
0.050000 81.022808 170.303796 -0.000000 0.143694 0.269326 -0.123999 -62.749542 112.742636 -0.000000 0.465038 0.375963 -0.368459
0.055000 81.126460 170.134571 -0.000000 0.143694 0.269338 -0.123988 -62.737657 112.773023 -0.000000 0.465036 0.375980 -0.368460
0.060000 81.264879 170.042166 -0.000000 0.143725 0.269357 -0.123972 -62.649435 112.825309 -0.000000 0.465042 0.375973 -0.368462
0.065000 81.404423 170.024373 -0.000000 0.143743 0.269358 -0.123951 -62.525553 112.882193 -0.000000 0.465045 0.375987 -0.368464
0.070000 81.580434 170.046875 -0.000000 0.143752 0.269366 -0.123916 -62.372074 112.943852 -0.000000 0.465063 0.375980 -0.368442
0.075000 81.784019 170.103684 -0.000000 0.143769 0.269377 -0.123915 -62.234964 112.985790 -0.000000 0.465072 0.375979 -0.368448
0.080000 82.025373 170.177873 -0.000000 0.143774 0.269394 -0.123916 -62.136318 112.995461 -0.000000 0.465069 0.375978 -0.368445
0.085000 82.279445 170.257079 -0.000000 0.143753 0.269395 -0.123935 -62.082500 112.969679 -0.000000 0.465061 0.375981 -0.368455
0.090000 82.523029 170.318369 -0.000000 0.143733 0.269389 -0.123972 -62.043760 112.923307 -0.000000 0.465065 0.375973 -0.368469
0.095000 82.697251 170.360189 -0.000000 0.143725 0.269373 -0.123990 -62.018871 112.857236 -0.000000 0.465058 0.375991 -0.368482
0.100000 82.828380 170.357309 -0.000000 0.143702 0.269373 -0.124026 -61.983688 112.797674 -0.000000 0.465056 0.375986 -0.368471
0.105000 82.892765 170.328960 -0.000000 0.143688 0.269387 -0.124016 -61.968620 112.754235 -0.000000 0.465049 0.375990 -0.368493
0.110000 82.894206 170.291229 -0.000000 0.143694 0.269382 -0.124038 -61.979082 112.751077 -0.000000 0.465054 0.375981 -0.368486
0.115000 82.837776 170.259026 -0.000000 0.143694 0.269370 -0.123995 -61.999730 112.808258 -0.000000 0.465064 0.375978 -0.368472
0.120000 82.734509 170.242511 -0.000000 0.143715 0.269378 -0.123962 -62.000111 112.928014 -0.000000 0.465058 0.375997 -0.368472
0.125000 82.621735 170.238998 -0.000000 0.143749 0.269388 -0.123927 -61.941760 113.096724 -0.000000 0.465063 0.375997 -0.368461
0.130000 82.525075 170.249345 -0.000000 0.143739 0.269376 -0.123905 -61.814836 113.284438 -0.000000 0.465070 0.375981 -0.368449
0.135000 82.443365 170.280237 -0.000000 0.143757 0.269373 -0.123909 -61.640850 113.460631 -0.000000 0.465064 0.376003 -0.368431
0.140000 82.423115 170.306188 -0.000000 0.143740 0.269360 -0.123920 -61.411816 113.630848 -0.000000 0.465054 0.375991 -0.368443
0.145000 82.431750 170.336709 -0.000000 0.143736 0.269343 -0.123948 -61.169482 113.783345 -0.000000 0.465044 0.376001 -0.368452
0.150000 82.486717 170.360245 -0.000000 0.143726 0.269336 -0.123970 -60.918957 113.920716 -0.000000 0.465038 0.376005 -0.368447
0.155000 82.565994 170.386050 -0.000000 0.143723 0.269324 -0.124001 -60.694458 114.021649 -0.000000 0.465020 0.376017 -0.368458
0.160000 82.670866 170.404813 -0.000000 0.143720 0.269319 -0.124006 -60.514488 114.074876 -0.000000 0.465011 0.376031 -0.368474
0.165000 82.774758 170.408972 -0.000000 0.143729 0.269315 -0.123991 -60.400355 114.070623 -0.000000 0.465012 0.376032 -0.368466
0.170000 82.829797 170.400115 -0.000000 0.143748 0.269323 -0.123981 -60.376438 113.997881 -0.000000 0.465012 0.376048 -0.368465
0.175000 82.819567 170.375675 -0.000000 0.143761 0.269326 -0.123960 -60.451923 113.860436 -0.000000 0.465021 0.376053 -0.368456
0.180000 82.726287 170.343246 -0.000000 0.143759 0.269333 -0.123951 -60.629381 113.673994 -0.000000 0.465023 0.376058 -0.368460
0.185000 82.513527 170.320065 -0.000000 0.143798 0.269322 -0.123931 -60.889681 113.463157 -0.000000 0.465011 0.376076 -0.368467
0.190000 82.225588 170.283255 -0.000000 0.143792 0.269324 -0.123936 -61.136215 113.282888 -0.000000 0.465023 0.376085 -0.368454
0.195000 81.867893 170.238296 -0.000000 0.143797 0.269332 -0.123929 -61.324792 113.154123 -0.000000 0.465025 0.376076 -0.368452
0.200000 81.461799 170.203075 -0.000000 0.143777 0.269312 -0.123956 -61.463132 113.070541 -0.000000 0.465025 0.376084 -0.368455
0.205000 81.090779 170.180382 -0.000000 0.143775 0.269290 -0.123973 -61.559155 113.024922 -0.000000 0.465014 0.376099 -0.368461
0.210000 80.848162 170.162980 -0.000000 0.143771 0.269278 -0.124005 -61.610274 113.013818 -0.000000 0.465014 0.376103 -0.368464
0.215000 80.743670 170.159218 -0.000000 0.143761 0.269252 -0.124008 -61.643673 113.017061 -0.000000 0.465022 0.376117 -0.368458
0.220000 80.766028 170.159007 -0.000000 0.143762 0.269224 -0.124016 -61.667340 113.023225 -0.000000 0.465010 0.376127 -0.368465
0.225000 80.890209 170.144302 -0.000000 0.143783 0.269227 -0.123991 -61.663706 113.032349 -0.000000 0.465027 0.376127 -0.368453
0.230000 81.024917 170.133227 -0.000000 0.143789 0.269207 -0.123979 -61.647664 113.026563 -0.000000 0.465021 0.376149 -0.368447
0.235000 81.176681 170.109515 -0.000000 0.143804 0.269208 -0.123962 -61.592393 113.016818 -0.000000 0.465024 0.376162 -0.368441
0.240000 81.314733 170.081364 -0.000000 0.143823 0.269206 -0.123930 -61.524097 112.998395 -0.000000 0.465024 0.376170 -0.368432
0.245000 81.415445 170.054786 -0.000000 0.143815 0.269192 -0.123913 -61.464926 112.980049 -0.000000 0.465012 0.376186 -0.368441
0.250000 81.475158 170.032891 -0.000000 0.143827 0.269182 -0.123941 -61.415254 112.981022 -0.000000 0.465009 0.376215 -0.368437
0.255000 81.513042 170.024404 -0.000000 0.143826 0.269132 -0.123949 -61.375119 113.007960 -0.000000 0.465002 0.376217 -0.368435
0.260000 81.578306 170.033591 -0.000000 0.143828 0.269122 -0.123972 -61.344268 113.055872 -0.000000 0.465003 0.376233 -0.368448
0.265000 81.673133 170.075552 -0.000000 0.143823 0.269109 -0.123996 -61.350790 113.103661 -0.000000 0.464986 0.376253 -0.368452
0.270000 81.806180 170.142818 -0.000000 0.143829 0.269093 -0.124013 -61.404401 113.145866 -0.000000 0.464969 0.376263 -0.368454
0.275000 81.945477 170.239023 -0.000000 0.143841 0.269060 -0.124007 -61.525734 113.172531 -0.000000 0.464977 0.376309 -0.368445
0.280000 82.129211 170.328263 -0.000000 0.143863 0.269071 -0.123999 -61.658620 113.208764 -0.000000 0.464968 0.376321 -0.368451
0.285000 82.269573 170.422584 -0.000000 0.143885 0.269050 -0.123976 -61.798201 113.237091 -0.000000 0.464956 0.376342 -0.368449
0.290000 82.345022 170.496188 -0.000000 0.143923 0.269036 -0.123949 -61.893665 113.251729 -0.000000 0.464955 0.376374 -0.368451
0.295000 82.347331 170.527208 -0.000000 0.143941 0.269026 -0.123934 -61.909687 113.242898 -0.000000 0.464960 0.376387 -0.368437
0.300000 82.246990 170.526355 -0.000000 0.143950 0.269003 -0.123919 -61.853949 113.199468 -0.000000 0.464963 0.376414 -0.368442
0.305000 82.083477 170.500261 -0.000000 0.143970 0.268981 -0.123928 -61.728107 113.138441 -0.000000 0.464959 0.376445 -0.368443
0.310000 81.937237 170.461143 -0.000000 0.143964 0.268953 -0.123943 -61.551249 113.081654 -0.000000 0.464963 0.376452 -0.368433
